<svg width="20" height="20" viewBox="0 0 20 20" fill="none" xmlns="http://www.w3.org/2000/svg">
<g clip-path="url(#clip0_4532_1641)">
<path d="M9.99944 0.399902C4.69644 0.399902 0.398438 4.6979 0.398438 9.9999C0.398306 11.2608 0.646554 12.5093 1.129 13.6742C1.61145 14.8391 2.31865 15.8976 3.21021 16.7891C4.10177 17.6807 5.16023 18.3879 6.32514 18.8703C7.49004 19.3528 8.73858 19.601 9.99944 19.6009C15.3004 19.6009 19.5994 15.3029 19.5994 9.9999C19.5994 4.6979 15.3004 0.399902 9.99944 0.399902ZM10.8954 3.8659C11.8314 3.8659 12.1064 4.4089 12.1064 5.0299C12.1064 5.8049 11.4864 6.5219 10.4274 6.5219C9.54144 6.5219 9.11944 6.0769 9.14544 5.3399C9.14544 4.7189 9.66444 3.8659 10.8954 3.8659ZM8.49744 15.7499C7.85744 15.7499 7.39044 15.3609 7.83744 13.6559L8.57044 10.6309C8.69744 10.1469 8.71844 9.9529 8.57044 9.9529C8.37944 9.9529 7.54844 10.2869 7.05844 10.6169L6.73944 10.0939C8.29444 8.7949 10.0824 8.0329 10.8474 8.0329C11.4874 8.0329 11.5934 8.7889 11.2744 9.9529L10.4344 13.1329C10.2854 13.6949 10.3494 13.8889 10.4984 13.8889C10.6904 13.8889 11.3184 13.6569 11.9364 13.1699L12.2984 13.6559C10.7854 15.1679 9.13644 15.7499 8.49744 15.7499Z" fill="white"/>
</g>
<defs>
<clipPath id="clip0_4532_1641">
<rect width="20" height="20" fill="white"/>
</clipPath>
</defs>
</svg>
