<svg width="19" height="19" viewBox="0 0 19 19" fill="none" xmlns="http://www.w3.org/2000/svg">
<path d="M9.5 0C7.62108 0 5.78435 0.557165 4.22209 1.60104C2.65982 2.64491 1.44218 4.12861 0.723149 5.86451C0.0041162 7.6004 -0.184015 9.51054 0.182544 11.3534C0.549104 13.1962 1.45389 14.8889 2.78249 16.2175C4.11109 17.5461 5.80383 18.4509 7.64665 18.8175C9.48946 19.184 11.3996 18.9959 13.1355 18.2769C14.8714 17.5578 16.3551 16.3402 17.399 14.7779C18.4428 13.2156 19 11.3789 19 9.5C19 8.25244 18.7543 7.0171 18.2769 5.86451C17.7994 4.71191 17.0997 3.66464 16.2175 2.78248C15.3354 1.90033 14.2881 1.20056 13.1355 0.723144C11.9829 0.245725 10.7476 0 9.5 0ZM10.45 9.5C10.4507 9.62502 10.4268 9.74896 10.3795 9.86471C10.3322 9.98045 10.2625 10.0857 10.1745 10.1745L7.3245 13.0245C7.14277 13.1801 6.90899 13.2615 6.6699 13.2522C6.43081 13.243 6.20401 13.1439 6.03482 12.9747C5.86563 12.8055 5.76651 12.5787 5.75728 12.3396C5.74804 12.1005 5.82937 11.8667 5.985 11.685L8.55 9.1105V4.75C8.55 4.49804 8.65009 4.25641 8.82825 4.07825C9.00641 3.90009 9.24805 3.8 9.5 3.8C9.75196 3.8 9.99359 3.90009 10.1718 4.07825C10.3499 4.25641 10.45 4.49804 10.45 4.75V9.5Z" fill="white"/>
</svg>
